<svg width="854" height="312" viewBox="0 0 854 312" xmlns="http://www.w3.org/2000/svg"><title>consultancy-method</title><desc>Created with Sketch.</desc><g fill="none" fill-rule="evenodd"><g><g><g id="Oval-2-+-Oval-1"><path d="M286.012 115.848c18.845 75.536-27.112 152.047-102.648 170.892S31.317 259.628 12.472 184.092 39.584 32.045 115.12 13.2s152.047 27.112 170.892 102.648zm-261.9 65.34c17.24 69.107 87.24 111.153 156.348 93.912 69.107-17.24 111.153-87.24 93.912-156.348C257.132 49.645 187.132 7.6 118.024 24.84 48.917 42.08 6.87 112.08 24.112 181.188z" id="Oval-2"/><path d="M.362 76.078l44.816 34.977L57.746 48.75.362 76.08z" id="Triangle-1" fill="#2E3B55"/></g><text font-family="Gill Sans" font-size="36" letter-spacing="-1.35" fill="#FF6464" transform="translate(-24 -41) translate(0 18)"><tspan x="119.468" y="181">Planning</tspan></text></g><g><g id="Oval-2-+-Oval-1"><path d="M648.877 23.914c69.384-35.354 154.29-7.767 189.645 61.617 35.354 69.385 7.767 154.292-61.617 189.646-69.384 35.354-154.29 7.767-189.645-61.617-35.354-69.385-7.767-154.292 61.617-189.646zm122.58 240.57c63.48-32.345 88.718-110.026 56.373-173.505C795.485 27.5 717.804 2.26 654.325 34.605c-63.48 32.345-88.718 110.026-56.373 173.505 32.345 63.48 110.026 88.72 173.505 56.374z" id="Oval-2"/><path d="M674.32 311.28l24.057-51.525-63.555 1.706 39.497 49.82z" id="Triangle-1" fill="#2E3B55"/></g><text font-family="Gill Sans" font-size="36" letter-spacing="-1.35" fill="#FF6464" transform="translate(-24 -41) translate(545)"><tspan x="119.222" y="200">Workshop</tspan></text></g><g><g><path d="M572 150.25c0-77.872-63.128-141-141-141s-141 63.128-141 141 63.128 141 141 141 141-63.128 141-141zm-270 0c0-71.245 57.755-129 129-129s129 57.755 129 129-57.755 129-129 129-129-57.755-129-129z"/><path d="M361.756.872L394.4 47.45l-62.9 9.356L361.756.872z" fill="#2E3B55"/></g><text font-family="Gill Sans" font-size="36" letter-spacing="-1.35" fill="#FF6464" transform="translate(-24 -41) translate(314 41.25)"><tspan x="80.613" y="160">Research</tspan></text></g></g></g></svg>